<svg xmlns="http://www.w3.org/2000/svg" width="1800" height="1050" viewBox="0 0 1800 1050">
  <defs>
    <marker id="arrow" markerWidth="10" markerHeight="10" refX="8" refY="3" orient="auto" markerUnits="strokeWidth">
      <path d="M0,0 L0,6 L9,3 z" fill="#334155"/>
    </marker>
  </defs>
  <rect width="1800" height="1050" fill="#f8fafc"/>
  <text x="60" y="70" font-family="Arial, sans-serif" font-size="34" font-weight="700" fill="#111827">USERFLOW</text>
  <text x="60" y="110" font-family="Arial, sans-serif" font-size="16" fill="#64748b">사용자가 메인 페이지에서 검사, 직업 탐색, 멘토링, 마이페이지까지 이동하는 흐름입니다.</text>

  <g font-family="Arial, sans-serif" font-size="15">
    <rect x="70" y="210" width="210" height="80" rx="14" fill="#1a365d"/>
    <text x="122" y="258" fill="#ffffff" font-weight="700">메인 페이지</text>

    <rect x="390" y="110" width="230" height="80" rx="14" fill="#ffffff" stroke="#dbe3ef"/>
    <text x="455" y="158" fill="#111827" font-weight="700">회원가입/로그인</text>
    <line x1="280" y1="235" x2="390" y2="170" stroke="#334155" stroke-width="2" marker-end="url(#arrow)"/>

    <rect x="390" y="310" width="230" height="80" rx="14" fill="#ffffff" stroke="#dbe3ef"/>
    <text x="465" y="358" fill="#111827" font-weight="700">진로 검사</text>
    <line x1="280" y1="260" x2="390" y2="340" stroke="#334155" stroke-width="2" marker-end="url(#arrow)"/>

    <rect x="730" y="310" width="230" height="80" rx="14" fill="#eff6ff" stroke="#bfdbfe"/>
    <text x="800" y="358" fill="#1e40af" font-weight="700">검사 결과</text>
    <line x1="620" y1="350" x2="730" y2="350" stroke="#334155" stroke-width="2" marker-end="url(#arrow)"/>

    <rect x="1070" y="310" width="230" height="80" rx="14" fill="#ecfdf5" stroke="#bbf7d0"/>
    <text x="1140" y="358" fill="#166534" font-weight="700">추천 직업</text>
    <line x1="960" y1="350" x2="1070" y2="350" stroke="#334155" stroke-width="2" marker-end="url(#arrow)"/>

    <rect x="1410" y="310" width="230" height="80" rx="14" fill="#ffffff" stroke="#dbe3ef"/>
    <text x="1475" y="358" fill="#111827" font-weight="700">직업 상세</text>
    <line x1="1300" y1="350" x2="1410" y2="350" stroke="#334155" stroke-width="2" marker-end="url(#arrow)"/>

    <rect x="1410" y="120" width="230" height="80" rx="14" fill="#fdf2f8" stroke="#fbcfe8"/>
    <text x="1475" y="168" fill="#be185d" font-weight="700">멘토 상세</text>
    <line x1="1525" y1="310" x2="1525" y2="200" stroke="#334155" stroke-width="2" marker-end="url(#arrow)"/>

    <rect x="1070" y="120" width="230" height="80" rx="14" fill="#f5f3ff" stroke="#ddd6fe"/>
    <text x="1135" y="168" fill="#6d28d9" font-weight="700">멘토링 신청</text>
    <line x1="1410" y1="160" x2="1300" y2="160" stroke="#334155" stroke-width="2" marker-end="url(#arrow)"/>

    <rect x="730" y="560" width="230" height="80" rx="14" fill="#ffffff" stroke="#dbe3ef"/>
    <text x="785" y="608" fill="#111827" font-weight="700">관심 직업 저장</text>
    <line x1="1410" y1="390" x2="960" y2="580" stroke="#334155" stroke-width="2" marker-end="url(#arrow)"/>

    <rect x="1070" y="560" width="230" height="80" rx="14" fill="#ffffff" stroke="#dbe3ef"/>
    <text x="1140" y="608" fill="#111827" font-weight="700">채용공고</text>
    <line x1="1185" y1="390" x2="1185" y2="560" stroke="#334155" stroke-width="2" marker-end="url(#arrow)"/>

    <rect x="390" y="560" width="230" height="80" rx="14" fill="#ffffff" stroke="#dbe3ef"/>
    <text x="465" y="608" fill="#111827" font-weight="700">커뮤니티</text>
    <line x1="175" y1="290" x2="390" y2="580" stroke="#334155" stroke-width="2" marker-end="url(#arrow)"/>

    <rect x="730" y="800" width="300" height="90" rx="16" fill="#1a365d"/>
    <text x="815" y="837" fill="#ffffff" font-size="18" font-weight="700">마이페이지</text>
    <text x="780" y="866" fill="#dbeafe" font-size="13">프로필 · 로드맵 · 검사 결과 · 즐겨찾기 · 멘토링</text>
    <line x1="505" y1="190" x2="800" y2="800" stroke="#334155" stroke-width="2" marker-end="url(#arrow)"/>
    <line x1="845" y1="640" x2="845" y2="800" stroke="#334155" stroke-width="2" marker-end="url(#arrow)"/>
    <line x1="1185" y1="200" x2="980" y2="800" stroke="#334155" stroke-width="2" marker-end="url(#arrow)"/>
  </g>
</svg>
